.
..............................Site Info...........................

 -   http://www.scenetime.com  *_*   

SceneTime is going to Close sign up on march/1, hurry up! get in before the doors are closed.

     We care to share . Join us on  http://www.scenetime.com 

    Be the first to get new release at  http://www.scenetime.com

        Seed back for speed


...................................NFO:.................................................[img]http://img441.imageshack.us/img441/7396/insightartworkpic.jpg[/img]


[color=blue][size=5][b]Insight.2011.DVDRip.XVID.AC3.HQ.Hive-CM8[/b][/size][/color]


[b]Thx Hive

CM8 Doing It Right The First Time :D


Source: DVD-R TOF
thx

Encode:
DVD had great quality, did the usual, brightness, sharpness, rgb and denoise
got very nice
enjoy

Video: 720x400 @bitrate 1700 2pass
Audio: English AC3 5.1 @448
Sample: Yes, included[/b]
 
http://www.imdb.com/title/tt1687277/


General
Complete name                  : Insight.2011.DVDRip.XVID.AC3.HQ.Hive-CM8.avi
Format                         : AVI
Format/Info                    : Audio Video Interleave
File size                      : 1.38 GiB
Duration                       : 1h 31mn
Overall bit rate               : 2 158 Kbps
Writing application            : Nandub v1.0rc2
Writing library                : Nandub build 1853/release

Video
ID                             : 0
Format                         : MPEG-4 Visual
Format profile                 : Advanced Simple@L5
Format settings, BVOP          : 2
Format settings, QPel          : Yes
Format settings, GMC           : No warppoints
Format settings, Matrix        : Default (H.263)
Muxing mode                    : Packed bitstream
Codec ID                       : XVID
Codec ID/Hint                  : XviD
Duration                       : 1h 31mn
Bit rate                       : 1 701 Kbps
Width                          : 720 pixels
Height                         : 400 pixels
Display aspect ratio           : 16:9
Frame rate                     : 23.976 fps
Color space                    : YUV
Chroma subsampling             : 4:2:0
Bit depth                      : 8 bits
Scan type                      : Progressive
Compression mode               : Lossy
Bits/(Pixel*Frame)             : 0.246
Stream size                    : 1.09 GiB (79%)
Writing library                : XviD 1.2.1 (UTC 2008-12-04)

Audio
ID                             : 1
Format                         : AC-3
Format/Info                    : Audio Coding 3
Mode extension                 : CM (complete main)
Codec ID                       : 2000
Duration                       : 1h 31mn
Bit rate mode                  : Constant
Bit rate                       : 448 Kbps
Channel(s)                     : 6 channels
Channel positions              : Front: L C R, Side: L R, LFE
Sampling rate                  : 48.0 KHz
Bit depth                      : 16 bits
Compression mode               : Lossy
Delay relative to video        : 14ms
Stream size                    : 294 MiB (21%)
Alignment                      : Split accross interleaves
Interleave, duration           : 42 ms (1.00 video frame)
Interleave, preload duration   : 500 ms


Plot:
Kaitlyn, an ER nurse who is tending to a young stabbing victim, is accidentally
electrocuted by the defibrillator that is used in an effort to save the woman's
life. Almost immediately Kaitlyn starts to experience the victim's memories.


Cast:
Sean Patrick Flanery   ...    Det. Peter Rafferty
Natalie Zea            ...    Kaitlyn
Angeline-Rose Troy     ...    Allison
Adam Baldwin           ...    Dr. Graham Barrett


[img]http://img694.imageshack.us/img694/1623/iininn.png[/img]
[img]http://img441.imageshack.us/img441/6817/iiniinininniinnn.png[/img]
[img]http://img339.imageshack.us/img339/4177/iiniinininninn.png[/img]
[img]http://img823.imageshack.us/img823/3290/iiniinininnn.png[/img]
[img]http://img846.imageshack.us/img846/6067/iinn.png[/img]
[img]http://img33.imageshack.us/img33/893/84364152.png[/img]
[img]http://img841.imageshack.us/img841/4551/iiniinnn.png[/img]
[img]http://img195.imageshack.us/img195/3305/iiniinininniininnn.png[/img]



Greetz

ViSiON,SPK,SceneLovers,PRESTiGE,SANTi,3LT0N,YanKeeS,COPYxRIGHT,T0XiC
D2U,LKRG,Feel-Free,FLAWL3SS,WBZ,BHRG,26K,NOVA,TED,MAGNET,THC,jtr
Unevano,Rapeseed,SAFC,goldadvance,KaN1vE,Pinnz,Wayne
Mr Hive,and most P2P groups
Great Work Guys :D

LOOKING FOR ANYTHING YOU WANT TO LOOK AND SOUND BETTER

CM8@hushmail.com